<svg id="Layer_1" data-name="Layer 1" xmlns="http://www.w3.org/2000/svg" xmlns:xlink="http://www.w3.org/1999/xlink" viewBox="0 0 512 512"><defs><style>.cls-1{fill:url(#linear-gradient);}.cls-2{fill:url(#linear-gradient-2);}.cls-3{fill:url(#linear-gradient-3);}.cls-4{fill:#fffef1;}</style><linearGradient id="linear-gradient" x1="256" y1="468.84" x2="256" y2="43.16" gradientUnits="userSpaceOnUse"><stop offset="0" stop-color="#ce2a27"/><stop offset="1" stop-color="#ef466d"/></linearGradient><linearGradient id="linear-gradient-2" x1="256" y1="383.46" x2="256" y2="83.46" gradientUnits="userSpaceOnUse"><stop offset="0" stop-color="#f68b25"/><stop offset="1" stop-color="#e99342"/></linearGradient><linearGradient id="linear-gradient-3" x1="256" y1="145.48" x2="256" y2="345.48" gradientUnits="userSpaceOnUse"><stop offset="0" stop-color="#fad748"/><stop offset="1" stop-color="#f3ca20"/></linearGradient></defs><circle class="cls-1" cx="256" cy="256" r="212.84"/><path class="cls-2" d="M406,256a150,150,0,1,1-263-98.58l113.3-113.3L362.06,149.94A149.49,149.49,0,0,1,406,256Z"/><path class="cls-3" d="M356,256a100,100,0,1,1-170.71-70.71L256,114.58l70.71,70.71A99.65,99.65,0,0,1,356,256Z"/><path class="cls-4" d="M306,256a50,50,0,1,1-85.35-35.35L256,185.29l35.35,35.36A49.84,49.84,0,0,1,306,256Z"/></svg>